HIERARCHY
ROOT Pelvis
{
	OFFSET 0.000000 0.000000 0.000000
	CHANNELS 6 Xposition Yposition Zposition Xrotation Yrotation Zrotation
	JOINT LeftUpLeg_virtual
	{
		OFFSET 0.000000 0.000000 0.000000
		CHANNELS 3 Xrotation Yrotation Zrotation
		JOINT LeftUpLeg
		{
			OFFSET 18.735201 -5.666702 -4.541200
			CHANNELS 3 Xrotation Yrotation Zrotation
			JOINT LeftLeg
			{
				OFFSET -0.021200 -31.938179 0.493100
				CHANNELS 3 Xrotation Yrotation Zrotation
				JOINT LeftFoot
				{
					OFFSET 0.021200 -31.938179 -4.336299
					CHANNELS 3 Xrotation Yrotation Zrotation
					JOINT LeftToeBase
					{
						OFFSET 0.943001 -26.722000 15.023500
						CHANNELS 3 Xrotation Yrotation Zrotation
						End Site
						{
							OFFSET 0 0 0
						}
					}
				}
			}
		}
	}
	JOINT RightUpLeg_virtual
	{
		OFFSET 0.000000 0.000000 0.000000
		CHANNELS 3 Xrotation Yrotation Zrotation
		JOINT RightUpLeg
		{
			OFFSET -18.735201 -5.666702 -4.541200
			CHANNELS 3 Xrotation Yrotation Zrotation
			JOINT RightLeg
			{
				OFFSET 0.018946 -31.938133 0.493100
				CHANNELS 3 Xrotation Yrotation Zrotation
				JOINT RightFoot
				{
					OFFSET -0.018946 -31.938126 -4.336299
					CHANNELS 3 Xrotation Yrotation Zrotation
					JOINT RightToeBase
					{
						OFFSET -0.943001 -26.722004 15.023500
						CHANNELS 3 Xrotation Yrotation Zrotation
						End Site
						{
							OFFSET 0 0 0
						}
					}
				}
			}
		}
	}
	JOINT Hips_virtual
	{
		OFFSET 0.000000 0.000000 0.000000
		CHANNELS 3 Xrotation Yrotation Zrotation
		JOINT Hips
		{
			OFFSET -0.000000 -0.000000 -0.000000
			CHANNELS 3 Xrotation Yrotation Zrotation
			JOINT Spine
			{
				OFFSET 0.000000 10.199997 -0.299500
				CHANNELS 3 Xrotation Yrotation Zrotation
				JOINT Spine1
				{
					OFFSET 0.000000 11.900002 -1.516600
					CHANNELS 3 Xrotation Yrotation Zrotation
					JOINT Spine2
					{
						OFFSET 0.000000 13.600006 -2.842500
						CHANNELS 3 Xrotation Yrotation Zrotation
						JOINT Neck_virtual
						{
							OFFSET 0.000000 0.000000 0.000000
							CHANNELS 3 Xrotation Yrotation Zrotation
							JOINT Neck
							{
								OFFSET 0.000000 9.624100 -2.890100
								CHANNELS 3 Xrotation Yrotation Zrotation
								JOINT Head
								{
									OFFSET 0.000000 14.068802 -1.351900
									CHANNELS 3 Xrotation Yrotation Zrotation
									End Site
									{
										OFFSET 0 0 0
									}
								}
							}
						}
						JOINT LeftShoulder_virtual
						{
							OFFSET 0.000000 0.000000 0.000000
							CHANNELS 3 Xrotation Yrotation Zrotation
							JOINT LeftShoulder
							{
								OFFSET 15.263000 10.923401 -0.547700
								CHANNELS 3 Xrotation Yrotation Zrotation
								JOINT LeftArm
								{
									OFFSET 25.438599 -2.830597 -13.032500
									CHANNELS 3 Xrotation Yrotation Zrotation
									JOINT LeftForeArm
									{
										OFFSET 29.960503 0.000000 0.000000
										CHANNELS 3 Xrotation Yrotation Zrotation
										JOINT LeftHand
										{
											OFFSET 27.849251 0.000000 0.000000
											CHANNELS 3 Xrotation Yrotation Zrotation
											End Site
											{
												OFFSET 0 0 0
											}
										}
									}
								}
							}
						}
						JOINT RightShoulder_virtual
						{
							OFFSET 0.000000 0.000000 0.000000
							CHANNELS 3 Xrotation Yrotation Zrotation
							JOINT RightShoulder
							{
								OFFSET -15.263000 10.923401 -0.547700
								CHANNELS 3 Xrotation Yrotation Zrotation
								JOINT RightArm
								{
									OFFSET -25.438599 -2.830597 -13.032500
									CHANNELS 3 Xrotation Yrotation Zrotation
									JOINT RightForeArm
									{
										OFFSET -29.960503 0.000000 0.000000
										CHANNELS 3 Xrotation Yrotation Zrotation
										JOINT RightHand
										{
											OFFSET -27.849251 0.000000 0.000000
											CHANNELS 3 Xrotation Yrotation Zrotation
											End Site
											{
												OFFSET 0 0 0
											}
										}
									}
								}
							}
						}
					}
				}
			}
		}
	}
}
MOTION
Frames: 12
Frame Time: 0.03333333
-3.526525 78.410515 3.057213 0.000000 0.000000 0.000000 11.660449 -49.374420 11.268450 -69.006726 20.606927 47.787931 51.256328 -22.124245 3.397128 2.960948 1.488360 -15.125215 0.000000 0.000000 0.000000 11.660449 -49.374420 11.268450 -33.115988 3.850950 -30.939579 58.819663 4.953494 -6.674914 -30.774660 -6.443305 30.151573 0.000000 0.000000 0.000000 11.660449 -49.374420 11.268450 0.000000 -0.000001 0.000000 10.970015 2.720516 -2.032964 6.100712 5.566548 -4.284696 0.000000 0.000000 0.000000 -5.786925 6.328130 -3.046183 0.458487 1.873441 -0.022645 0.000000 0.000000 0.000000 -5.786925 6.328130 -3.046183 -1.915073 -16.511786 -2.939003 -10.486669 2.625046 -45.366345 -22.934643 -26.042289 -16.052415 0.000000 0.000000 0.000000 -5.786925 6.328130 -3.046183 -5.102372 24.651548 1.530438 6.852340 -35.149957 57.689233 -21.079521 44.888918 20.017001 0.000000 0.000000 0.000000 
-3.010861 78.640533 2.678036 0.000000 0.000000 0.000000 11.542964 -49.209536 10.994534 -69.271888 20.807741 47.452388 50.317413 -22.325385 3.336303 3.971502 1.585216 -14.796857 0.000000 0.000000 0.000000 11.542964 -49.209536 10.994534 -33.218232 3.817218 -30.425221 58.402414 4.698701 -6.865509 -30.383970 -6.746288 30.158878 0.000000 0.000000 0.000000 11.542964 -49.209536 10.994534 0.000001 0.000000 0.000000 10.770993 2.680074 -1.852896 6.253150 5.455811 -4.730124 0.000000 0.000000 0.000000 -5.604863 6.319128 -3.448274 0.571059 1.962407 -0.114034 0.000000 0.000000 0.000000 -5.604863 6.319128 -3.448274 -1.950320 -16.377042 -3.316430 -12.793724 0.478091 -45.036174 -20.515385 -22.352267 -13.137836 0.000000 0.000000 0.000000 -5.604863 6.319128 -3.448274 -4.920683 23.574273 1.114867 5.639820 -34.678069 56.669670 -22.473127 45.269633 21.754035 0.000000 0.000000 0.000000 
-2.540800 78.870506 2.082966 0.000000 0.000000 0.000000 11.474291 -49.889457 11.062913 -68.825187 21.252391 47.377542 49.056153 -22.277352 3.260054 4.865138 2.040858 -14.976966 0.000000 0.000000 0.000000 11.474291 -49.889457 11.062913 -34.226655 4.179472 -30.060363 58.592614 5.467469 -7.068449 -30.076178 -6.935837 29.732865 0.000000 0.000000 0.000000 11.474291 -49.889457 11.062913 0.000000 -0.000001 0.000000 10.966517 2.442656 -2.070560 6.354288 5.276279 -5.097345 0.000000 0.000000 0.000000 -5.456691 6.268704 -3.745265 0.625020 2.252094 -0.397815 0.000000 0.000000 0.000000 -5.456691 6.268704 -3.745265 -1.995280 -14.975000 -4.449678 -15.399638 -1.800134 -44.184825 -16.719352 -18.848414 -10.461576 0.000000 0.000000 0.000000 -5.456691 6.268704 -3.745265 -4.584626 21.996479 0.859058 3.917472 -34.011077 54.545768 -24.794673 47.064300 25.390639 0.000000 0.000000 0.000000 
-2.259903 79.033356 1.153522 0.000000 0.000000 0.000000 12.452549 -53.116168 12.118670 -67.205872 21.315067 48.636008 48.108147 -20.549642 3.267697 4.725052 2.752835 -16.590760 0.000000 0.000000 0.000000 12.452549 -53.116168 12.118670 -37.333363 6.156125 -29.144868 58.725680 8.183929 -7.273649 -27.748523 -6.645101 30.195040 0.000000 0.000000 0.000000 12.452549 -53.116168 12.118670 0.000000 -0.000002 0.000000 10.974548 2.144760 -2.056444 6.622247 4.954796 -5.562617 0.000000 0.000000 0.000000 -5.105697 6.139124 -4.118082 0.658366 2.754339 -0.802381 0.000000 0.000000 0.000000 -5.105697 6.139124 -4.118082 -1.981545 -13.332537 -5.802921 -15.999505 -1.606224 -43.044037 -13.164496 -18.160947 -9.218388 0.000000 0.000000 0.000000 -5.105697 6.139124 -4.118082 -4.212518 21.033445 1.004113 0.695062 -32.792554 50.817611 -27.747821 50.323854 30.421577 0.000000 0.000000 0.000000 
-2.067553 79.203812 0.009392 0.000000 0.000000 0.000000 14.799563 -58.461966 14.473832 -64.375674 21.548241 50.806328 47.349368 -19.820171 3.227134 3.905020 6.180079 -19.344393 0.000000 0.000000 0.000000 14.799563 -58.461966 14.473832 -42.010185 8.697788 -26.893240 58.554426 11.482795 -7.397465 -24.324175 -5.751370 29.908333 0.000000 0.000000 0.000000 14.799563 -58.461966 14.473832 0.000001 -0.000003 0.000000 11.004761 1.754649 -2.024748 6.983141 4.491694 -6.024193 0.000000 0.000000 0.000000 -4.638925 5.917009 -4.492120 0.481168 3.396322 -1.194861 0.000000 0.000000 0.000000 -4.638925 5.917009 -4.492120 -1.767452 -10.956388 -6.848841 -15.155339 0.099824 -42.101259 -10.572625 -19.057739 -8.624073 0.000000 0.000000 0.000000 -4.638925 5.917009 -4.492120 -3.613088 18.723791 1.244314 -4.736853 -27.854372 45.593698 -29.494707 52.631184 34.309232 0.000000 0.000000 0.000000 
-1.862626 79.394196 -1.248108 0.000000 0.000000 0.000000 19.367425 -65.100965 18.985356 -60.629267 22.579164 53.481628 46.354592 -18.161294 3.196088 2.917142 9.705351 -22.783529 0.000000 0.000000 0.000000 19.367425 -65.100965 18.985356 -47.542133 10.731507 -23.272789 57.989583 14.883715 -7.271525 -20.972306 -4.341687 28.048373 0.000000 0.000000 0.000000 19.367425 -65.100965 18.985356 0.000000 0.000002 0.000000 11.068354 1.269451 -1.965928 7.435951 3.869152 -6.450016 0.000000 0.000000 0.000000 -4.062810 5.582869 -4.856651 0.293757 3.990702 -1.402726 0.000000 0.000000 0.000000 -4.062810 5.582869 -4.856651 -1.438118 -8.529047 -7.720708 -13.733665 2.442167 -41.562705 -8.004723 -19.812487 -7.919388 0.000000 0.000000 0.000000 -4.062810 5.582869 -4.856651 -2.804897 17.511217 1.219129 -11.026034 -22.723823 39.514618 -29.815422 53.229426 37.711482 0.000000 0.000000 0.000000 
-1.626170 79.578667 -2.615849 0.000000 0.000000 0.000000 28.377737 -72.051208 27.898270 -57.135574 25.041570 56.642486 45.808060 -15.680391 3.173265 1.357998 12.349986 -25.944363 0.000000 0.000000 0.000000 28.377737 -72.051208 27.898270 -52.842090 12.119605 -18.714761 56.673624 18.057801 -6.824758 -17.659702 -3.116649 25.677232 0.000000 0.000000 0.000000 28.377737 -72.051208 27.898270 0.000000 0.000000 0.000000 11.176845 0.683606 -1.807412 7.980669 3.068875 -6.811690 0.000000 0.000000 0.000000 -3.385001 5.116882 -5.190047 0.082682 4.547720 -1.539591 0.000000 0.000000 0.000000 -3.385001 5.116882 -5.190047 -1.053626 -5.418269 -8.748442 -13.072594 3.747556 -41.542286 -4.682334 -18.553345 -6.367823 0.000000 0.000000 0.000000 -3.385001 5.116882 -5.190047 -2.090552 16.530362 1.454448 -15.833808 -17.327618 33.562600 -29.931187 54.931694 40.860084 0.000000 0.000000 0.000000 
-1.383222 79.693871 -4.031754 0.000000 0.000000 0.000000 47.340837 -77.944807 46.742632 -54.405103 28.602507 59.834725 45.696028 -12.545627 3.144821 -0.583724 13.868329 -28.648286 0.000000 0.000000 0.000000 47.340837 -77.944807 46.742632 -57.259416 13.145460 -13.745552 54.208903 20.776001 -6.330034 -13.682016 -2.170777 24.412117 0.000000 0.000000 0.000000 47.340837 -77.944807 46.742632 0.000001 -0.000001 0.000000 11.410120 -0.027266 -1.565543 8.788040 2.075347 -7.061395 0.000000 0.000000 0.000000 -2.438016 4.428665 -5.443278 -0.062623 4.843696 -1.382836 0.000000 0.000000 0.000000 -2.438016 4.428665 -5.443278 -0.664708 -3.960595 -9.093117 -11.172474 6.111034 -42.323892 -2.229003 -19.043315 -5.596487 0.000000 0.000000 0.000000 -2.438016 4.428665 -5.443278 -1.351342 14.706890 1.623286 -19.518574 -11.939594 28.375753 -29.884321 56.846271 42.575902 0.000000 0.000000 0.000000 
-1.289144 79.717316 -5.547672 0.000000 0.000000 0.000000 93.057625 -80.330347 92.202629 -52.046038 33.148411 62.865621 46.076880 -8.436552 3.132455 -2.865214 15.299475 -31.077689 0.000000 0.000000 0.000000 93.057625 -80.330347 92.202629 -61.832330 12.408193 -8.512688 50.108470 24.365653 -5.524978 -8.490781 -0.153843 23.285472 0.000000 0.000000 0.000000 93.057625 -80.330347 92.202629 0.000000 0.000000 0.000000 11.805988 -1.093853 -1.268768 9.948391 0.864023 -7.215606 0.000000 0.000000 0.000000 -1.162533 3.030792 -5.710052 -0.026893 4.961056 -1.140468 0.000000 0.000000 0.000000 -1.162533 3.030792 -5.710052 -0.297172 -3.581436 -9.086776 -8.570795 9.055513 -43.457140 0.324595 -22.830360 -5.488336 0.000000 0.000000 0.000000 -1.162533 3.030792 -5.710052 -0.758189 12.863323 2.327857 -23.416662 -6.128427 22.670836 -31.383415 59.006066 46.117413 0.000000 0.000000 0.000000 
-1.434231 79.766357 -6.894932 0.000000 0.000000 0.000000 123.743343 -77.084477 122.639106 -51.994750 36.819040 65.240751 47.771463 -4.111501 3.146686 -5.423114 15.154743 -31.283670 0.000000 0.000000 0.000000 123.743343 -77.084477 122.639106 -64.738493 10.668685 -4.695748 46.101041 27.527245 -4.728875 -4.273012 1.424761 22.652037 0.000000 0.000000 0.000000 123.743343 -77.084477 122.639106 0.000000 0.000000 0.000000 12.359453 -2.506175 -1.064280 11.326848 -1.283112 -7.283910 0.000000 0.000000 0.000000 0.346773 1.029685 -6.106847 0.228457 4.897729 -0.705976 0.000000 0.000000 0.000000 0.346773 1.029685 -6.106847 0.046887 -3.200945 -8.306658 -8.326186 9.509677 -43.902182 4.412607 -24.372857 -4.327054 0.000000 0.000000 0.000000 0.346773 1.029685 -6.106847 -0.175808 10.875668 3.275539 -25.503802 -1.310964 17.492176 -33.911527 60.822479 49.406795 0.000000 0.000000 0.000000 
-1.790085 79.972244 -7.761295 0.000000 0.000000 0.000000 128.278206 -73.983817 127.021684 -55.175409 38.537997 66.979929 50.598140 -0.167173 3.101034 -8.622257 12.770395 -29.309585 0.000000 0.000000 0.000000 128.278206 -73.983817 127.021684 -66.365096 9.866838 -2.800985 43.930202 28.579858 -4.347862 -2.880774 1.571424 22.053224 0.000000 0.000000 0.000000 128.278206 -73.983817 127.021684 0.000000 -0.000001 0.000000 13.016854 -3.744000 -0.852561 12.916575 -3.242427 -7.273015 0.000000 0.000000 0.000000 2.023088 -0.834209 -6.420902 0.909942 4.799764 -0.407086 0.000000 0.000000 0.000000 2.023088 -0.834209 -6.420902 0.370356 -3.315906 -7.438780 -9.790105 8.817078 -42.415786 8.151575 -25.579296 -3.942086 0.000000 0.000000 0.000000 2.023088 -0.834209 -6.420902 0.298729 8.877836 3.444527 -25.497200 0.298957 12.901587 -39.692060 60.396747 55.235357 0.000000 0.000000 0.000000 
-2.434002 80.196945 -8.338722 0.000000 0.000000 0.000000 129.891183 -71.205521 128.238974 -58.478270 39.918508 68.630116 53.633084 3.956526 2.930244 -12.290203 10.142221 -27.465311 0.000000 0.000000 0.000000 129.891183 -71.205521 128.238974 -67.329566 9.699321 -0.973826 42.006159 28.695336 -4.200961 -2.310277 1.525334 21.749354 0.000000 0.000000 0.000000 129.891183 -71.205521 128.238974 0.000001 0.000000 0.000000 13.658773 -4.632031 -0.646259 14.460364 -4.627381 -7.119924 0.000000 0.000000 0.000000 3.602756 -2.196616 -6.515305 1.750781 4.765140 -0.090211 0.000000 0.000000 0.000000 3.602756 -2.196616 -6.515305 0.522484 -4.107109 -6.454229 -10.166991 9.405271 -40.317090 7.147081 -29.889229 -5.113915 0.000000 0.000000 0.000000 3.602756 -2.196615 -6.515305 0.586735 6.511843 3.397261 -24.407802 -0.230489 9.383546 -44.349453 58.618104 59.554100 0.000000 0.000000 0.000000 
